# xmcd
#
# Track frame offsets:
#	150
#	18936
#	33947
#	48224
#	68863
#	87839
#	102760
#	117776
#	133630
#	148939
#	163025
#	176851
#	193477
#	212067
#
# Disc length: 3084 seconds
#
# Revision: 1
# Processed by: cddbd v1.5.2PL0 Copyright (c) Steve Scherf et al.
# Submitted via: EZCDAudioConverter 1.5.4.1
#
DISCID=c70c0a0e
DTITLE=Musical Los Bravos - Tudo Por Você
DYEAR=1999
DGENRE=Regional
TTITLE0=O Adolfo Deu
TTITLE1=Ser Cowboy Me Faz Bem
TTITLE2=Essa é Minha Paixão
TTITLE3=Inamoratto Di Te
TTITLE4=Morrendo de Amor Por Ela
TTITLE5=Lembrei de Você
TTITLE6=Cosi Desmiciato Bonora
TTITLE7=The Una Strana Expressine Nei Toui Occhi
TTITLE8=Laçador de Profissão
TTITLE9=Dime Dove Sei
TTITLE10=Ter Essa Garota Só Pra Mim
TTITLE11=Não Sou Ninguém Sem Você
TTITLE12=El Baile Del Saon
TTITLE13=Vamos Ver o Sol Nascer
EXTD=
EXTT0=
EXTT1=
EXTT2=
EXTT3=
EXTT4=
EXTT5=
EXTT6=
EXTT7=
EXTT8=
EXTT9=
EXTT10=
EXTT11=
EXTT12=
EXTT13=
PLAYORDER=
